<svg width="42" height="42" viewBox="0 0 42 42" fill="none" xmlns="http://www.w3.org/2000/svg">
<path d="M17.693 31.7618H11.0605C10.343 31.7618 9.74805 31.1668 9.74805 30.4493V21.4893C9.74805 19.6693 11.2355 18.1816 13.0555 18.1816H17.693C18.4105 18.1816 19.0055 18.7766 19.0055 19.4941V30.4316C19.0055 31.1666 18.4105 31.7618 17.693 31.7618ZM12.373 29.1368H16.3805V20.8243H13.0555C12.688 20.8243 12.373 21.1216 12.373 21.5066V29.1368Z" fill="#00DA71"/>
<path d="M24.3068 31.7625H17.6743C16.9568 31.7625 16.3618 31.1675 16.3618 30.45V13.5448C16.3618 11.7248 17.8493 10.2373 19.6693 10.2373H22.3293C24.1493 10.2373 25.6368 11.7248 25.6368 13.5448V30.45C25.6193 31.1675 25.0418 31.7625 24.3068 31.7625ZM19.0043 29.1375H23.0118V13.5448C23.0118 13.1773 22.7143 12.8623 22.3293 12.8623H19.6693C19.3018 12.8623 18.9868 13.1598 18.9868 13.5448V29.1375H19.0043Z" fill="#00DA71"/>
<path d="M30.9411 31.7615H24.3086C23.5911 31.7615 22.9961 31.1665 22.9961 30.449V22.4863C22.9961 21.7688 23.5911 21.1738 24.3086 21.1738H28.9461C30.7661 21.1738 32.2536 22.6613 32.2536 24.4813V30.449C32.2536 31.1665 31.6761 31.7615 30.9411 31.7615ZM25.6211 29.1365H29.6286V24.4813C29.6286 24.1138 29.3311 23.7988 28.9461 23.7988H25.6211V29.1365Z" fill="#00DA71"/>
<path d="M26.25 39.8125H15.75C6.2475 39.8125 2.1875 35.7525 2.1875 26.25V15.75C2.1875 6.2475 6.2475 2.1875 15.75 2.1875H26.25C35.7525 2.1875 39.8125 6.2475 39.8125 15.75V26.25C39.8125 35.7525 35.7525 39.8125 26.25 39.8125ZM15.75 4.8125C7.6825 4.8125 4.8125 7.6825 4.8125 15.75V26.25C4.8125 34.3175 7.6825 37.1875 15.75 37.1875H26.25C34.3175 37.1875 37.1875 34.3175 37.1875 26.25V15.75C37.1875 7.6825 34.3175 4.8125 26.25 4.8125H15.75Z" fill="#00DA71"/>
</svg>
