<svg width="43" height="43" viewBox="0 0 43 43" fill="none" xmlns="http://www.w3.org/2000/svg">
<path d="M16.512 31.8948C16.3186 31.8948 16.1076 31.8421 15.9318 31.7542C14.5779 31.0684 13.4175 30.0486 12.5735 28.7827C11.8702 27.7277 11.8702 26.3739 12.5735 25.3189C13.4175 24.053 14.5779 23.0332 15.9318 22.365C16.5823 22.031 17.3736 22.3123 17.7076 22.9628C18.0417 23.6134 17.778 24.4046 17.1098 24.7387C16.1604 25.2134 15.3516 25.9343 14.7713 26.8134C14.6658 26.9717 14.6658 27.1827 14.7713 27.3585C15.3516 28.2376 16.1604 28.9585 17.1098 29.4332C17.7604 29.7673 18.0241 30.5585 17.7076 31.2091C17.4615 31.6311 16.9867 31.8948 16.512 31.8948Z" fill="#FF007A"/>
<path d="M27.4277 31.8949C26.9354 31.8949 26.4783 31.6312 26.2497 31.174C25.9156 30.5235 26.1794 29.7323 26.8475 29.3982C27.797 28.9235 28.6058 28.2026 29.186 27.3235C29.2915 27.1652 29.2915 26.9542 29.186 26.7784C28.6058 25.8993 27.797 25.1784 26.8475 24.7036C26.197 24.3696 25.9332 23.5783 26.2497 22.9278C26.5838 22.2772 27.375 22.0135 28.0256 22.33C29.3794 23.0157 30.5399 24.0355 31.3838 25.3014C32.0872 26.3564 32.0872 27.7103 31.3838 28.7652C30.5399 30.0312 29.3794 31.051 28.0256 31.7191C27.8146 31.8422 27.6212 31.8949 27.4277 31.8949Z" fill="#FF007A"/>
<path d="M27.0599 40.6865H16.5103C6.96296 40.6865 2.88379 36.6073 2.88379 27.0599V16.5103C2.88379 6.96296 6.96296 2.88379 16.5103 2.88379H27.0599C36.6073 2.88379 40.6865 6.96296 40.6865 16.5103V27.0599C40.6865 36.6073 36.6073 40.6865 27.0599 40.6865ZM16.5103 5.52119C8.40474 5.52119 5.52119 8.40474 5.52119 16.5103V27.0599C5.52119 35.1655 8.40474 38.0491 16.5103 38.0491H27.0599C35.1655 38.0491 38.0491 35.1655 38.0491 27.0599V16.5103C38.0491 8.40474 35.1655 5.52119 27.0599 5.52119H16.5103Z" fill="#FF007A"/>
<path d="M4.6077 16.0876C3.88681 16.0876 3.289 15.4898 3.289 14.7689C3.289 14.048 3.86923 13.4502 4.6077 13.4502L38.4016 13.4326C39.1225 13.4326 39.7203 14.0304 39.7203 14.7513C39.7203 15.4722 39.1401 16.07 38.4016 16.07L4.6077 16.0876Z" fill="#FF007A"/>
</svg>
