<svg width="38" height="36" viewBox="0 0 38 36" fill="none" xmlns="http://www.w3.org/2000/svg">
<path d="M17.9989 20.1668C17.7823 20.1668 17.5656 20.1168 17.3656 20.0002L2.64886 11.4835C2.04886 11.1335 1.84882 10.3668 2.19882 9.76678C2.54882 9.16678 3.29882 8.96675 3.91549 9.31675L17.9989 17.4668L31.9988 9.36679C32.5988 9.01679 33.3654 9.23349 33.7154 9.81683C34.0654 10.4168 33.8489 11.1834 33.2656 11.5334L18.6489 20.0002C18.4323 20.1002 18.2156 20.1668 17.9989 20.1668Z" fill="#2639ED"/>
<path d="M18 35.2671C17.3167 35.2671 16.75 34.7004 16.75 34.0171V18.9004C16.75 18.2171 17.3167 17.6504 18 17.6504C18.6833 17.6504 19.25 18.2171 19.25 18.9004V34.0171C19.25 34.7004 18.6833 35.2671 18 35.2671Z" fill="#2639ED"/>
<path d="M17.9982 35.9173C16.4815 35.9173 15.0315 35.5673 13.9315 34.9507L5.03149 30.0175C2.61483 28.6842 0.714844 25.4673 0.714844 22.7007V13.2674C0.714844 10.5007 2.61483 7.30077 5.03149 5.95077L13.9315 1.01738C16.1982 -0.249284 19.7648 -0.249284 22.0482 1.01738L30.9482 5.95077C33.3648 7.2841 35.2648 10.5007 35.2648 13.2674V19.3673C35.2648 20.0507 34.6982 20.6173 34.0148 20.6173C33.3315 20.6173 32.7648 20.0507 32.7648 19.3673V13.2674C32.7648 11.434 31.3482 9.0341 29.7482 8.15077L20.8482 3.2174C19.3315 2.3674 16.6815 2.3674 15.1648 3.2174L6.26481 8.15077C4.64814 9.05077 3.24816 11.434 3.24816 13.2674V22.7007C3.24816 24.534 4.66481 26.9342 6.26481 27.8175L15.1648 32.7507C16.6315 33.5673 19.3982 33.5673 20.8482 32.7507C21.4482 32.4173 22.2148 32.6342 22.5482 33.2342C22.8815 33.8342 22.6648 34.6007 22.0648 34.934C20.9648 35.5673 19.5148 35.9173 17.9982 35.9173Z" fill="#2639ED"/>
<path d="M30.0001 34.9167C26.3667 34.9167 23.4167 31.9667 23.4167 28.3333C23.4167 24.7 26.3667 21.75 30.0001 21.75C33.6334 21.75 36.5834 24.7 36.5834 28.3333C36.5834 31.9667 33.6334 34.9167 30.0001 34.9167ZM30.0001 24.25C27.7501 24.25 25.9167 26.0833 25.9167 28.3333C25.9167 30.5833 27.7501 32.4167 30.0001 32.4167C32.2501 32.4167 34.0834 30.5833 34.0834 28.3333C34.0834 26.0833 32.2501 24.25 30.0001 24.25Z" fill="#2639ED"/>
<path d="M36.3324 35.9166C36.0158 35.9166 35.6991 35.7999 35.4491 35.5499L33.7824 33.8832C33.2991 33.3999 33.2991 32.5997 33.7824 32.1164C34.2658 31.6331 35.0658 31.6331 35.5491 32.1164L37.2158 33.7831C37.6991 34.2664 37.6991 35.0666 37.2158 35.5499C36.9658 35.7999 36.6491 35.9166 36.3324 35.9166Z" fill="#2639ED"/>
</svg>
