<svg width="42" height="42" viewBox="0 0 42 42" fill="none" xmlns="http://www.w3.org/2000/svg">
<path d="M31.045 39.8125H10.955C6.5975 39.8125 3.0625 36.2775 3.0625 31.92V20.1425C3.0625 15.785 6.5975 12.25 10.955 12.25H31.045C35.4025 12.25 38.9375 15.785 38.9375 20.1425V22.6625C38.9375 23.38 38.3425 23.975 37.625 23.975H34.09C33.4775 23.975 32.9175 24.2025 32.515 24.6225L32.4975 24.64C32.0075 25.1125 31.78 25.76 31.8325 26.425C31.9375 27.58 33.04 28.5075 34.3 28.5075H37.625C38.3425 28.5075 38.9375 29.1025 38.9375 29.82V31.9025C38.9375 36.2775 35.4025 39.8125 31.045 39.8125ZM10.955 14.875C8.05 14.875 5.6875 17.2375 5.6875 20.1425V31.92C5.6875 34.825 8.05 37.1875 10.955 37.1875H31.045C33.95 37.1875 36.3125 34.825 36.3125 31.92V31.15H34.3C31.6575 31.15 29.4175 29.19 29.2075 26.67C29.0675 25.235 29.5925 23.8175 30.6425 22.785C31.5525 21.8575 32.7775 21.35 34.09 21.35H36.3125V20.1425C36.3125 17.2375 33.95 14.875 31.045 14.875H10.955Z" fill="#FF9900"/>
<path d="M4.375 23.03C3.6575 23.03 3.0625 22.435 3.0625 21.7175V13.7201C3.0625 11.1126 4.7075 8.75001 7.14 7.82251L21.035 2.57251C22.47 2.03001 24.0625 2.22258 25.305 3.09758C26.565 3.97258 27.3 5.39008 27.3 6.91258V13.5625C27.3 14.28 26.705 14.875 25.9875 14.875C25.27 14.875 24.675 14.28 24.675 13.5625V6.91258C24.675 6.24758 24.36 5.63505 23.8 5.25005C23.24 4.86505 22.575 4.77755 21.945 5.02255L8.05 10.2725C6.6325 10.815 5.67 12.1976 5.67 13.7201V21.7175C5.6875 22.4525 5.0925 23.03 4.375 23.03Z" fill="#FF9900"/>
<path d="M34.3009 31.1506C31.6584 31.1506 29.4184 29.1906 29.2084 26.6706C29.0684 25.2181 29.5934 23.8006 30.6434 22.7681C31.5359 21.8581 32.7609 21.3506 34.0734 21.3506H37.7134C39.4459 21.4031 40.7759 22.7681 40.7759 24.4481V28.0531C40.7759 29.7331 39.4459 31.0981 37.7659 31.1506H34.3009ZM37.6784 23.9756H34.0909C33.4784 23.9756 32.9184 24.2031 32.5159 24.6231C32.0084 25.1131 31.7634 25.7781 31.8334 26.4431C31.9384 27.5981 33.0409 28.5256 34.3009 28.5256H37.7309C37.9584 28.5256 38.1684 28.3156 38.1684 28.0531V24.4481C38.1684 24.1856 37.9584 23.9931 37.6784 23.9756Z" fill="#FF9900"/>
<path d="M24.5 22.3125H12.25C11.5325 22.3125 10.9375 21.7175 10.9375 21C10.9375 20.2825 11.5325 19.6875 12.25 19.6875H24.5C25.2175 19.6875 25.8125 20.2825 25.8125 21C25.8125 21.7175 25.2175 22.3125 24.5 22.3125Z" fill="#FF9900"/>
</svg>
